<?xml version="1.0" encoding="utf-8"?>
<!-- Generator: Adobe Illustrator 16.0.0, SVG Export Plug-In . SVG Version: 6.00 Build 0)  -->
<!DOCTYPE svg PUBLIC "-//W3C//DTD SVG 1.1//EN" "http://www.w3.org/Graphics/SVG/1.1/DTD/svg11.dtd">
<svg version="1.1" id="Layer_1" xmlns="http://www.w3.org/2000/svg" xmlns:xlink="http://www.w3.org/1999/xlink" x="0px" y="0px"
	 width="612px" height="792px" viewBox="0 0 612 792" enable-background="new 0 0 612 792" xml:space="preserve">
<g>
	<path d="M162.892,302.232v-58.774h23.532c6.486,0,11.359,1.411,14.622,4.233c3.262,2.822,4.893,6.433,4.893,10.833
		c0,3.463-1.004,6.261-3.013,8.395c-2.009,2.134-4.544,3.544-7.604,4.233v0.574c2.236,0.096,4.338,0.728,6.3,1.894
		c1.961,1.167,3.554,2.794,4.778,4.879c1.224,2.085,1.836,4.582,1.836,7.49c0,3.119-0.771,5.902-2.312,8.351
		c-1.541,2.449-3.813,4.376-6.814,5.783c-3.003,1.407-6.706,2.109-11.105,2.109H162.892z M175.317,268.052h9.213
		c2.544,0,4.658-0.665,6.342-1.995c1.684-1.33,2.525-3.152,2.525-5.467c0-2.124-0.753-3.836-2.255-5.137
		c-1.502-1.301-3.63-1.951-6.385-1.951h-9.44V268.052z M175.317,292.073h10.131c3.48,0,6.013-0.669,7.591-2.009
		c1.578-1.339,2.367-3.109,2.367-5.309c0-2.43-0.865-4.42-2.599-5.969c-1.729-1.55-4.09-2.325-7.072-2.325h-10.418V292.073
		L175.317,292.073z"/>
	<path d="M227.567,243.458v58.774H215.34v-58.774H227.567z"/>
	<path d="M256.512,303.093c-4.458,0-8.308-0.952-11.551-2.855s-5.744-4.563-7.505-7.978c-1.76-3.415-2.641-7.38-2.641-11.896
		c0-4.553,0.881-8.538,2.641-11.953c1.761-3.415,4.262-6.074,7.505-7.978c3.243-1.904,7.093-2.855,11.551-2.855
		s8.311,0.952,11.552,2.855c3.242,1.904,5.744,4.563,7.506,7.978c1.761,3.415,2.641,7.399,2.641,11.953
		c0,4.516-0.88,8.48-2.641,11.896c-1.762,3.415-4.264,6.075-7.506,7.978C264.82,302.141,260.97,303.093,256.512,303.093z
		 M256.569,293.623c3.021,0,5.313-1.263,6.873-3.788c1.56-2.526,2.339-5.711,2.339-9.557s-0.779-7.036-2.339-9.571
		c-1.562-2.535-3.853-3.803-6.873-3.803c-3.08,0-5.405,1.268-6.976,3.803c-1.567,2.535-2.354,5.725-2.354,9.571
		s0.784,7.031,2.354,9.557C251.164,292.36,253.489,293.623,256.569,293.623z"/>
	<path d="M305.375,303.093c-4.515,0-8.394-0.961-11.637-2.884c-3.243-1.922-5.73-4.596-7.462-8.021
		c-1.731-3.424-2.599-7.366-2.599-11.824c0-4.515,0.875-8.48,2.626-11.896c1.75-3.415,4.242-6.084,7.478-8.007
		c3.232-1.923,7.079-2.884,11.536-2.884c3.846,0,7.218,0.698,10.115,2.095c2.898,1.397,5.187,3.358,6.858,5.883
		s2.598,5.491,2.77,8.896h-11.535c-0.325-2.2-1.184-3.975-2.568-5.324c-1.388-1.349-3.199-2.023-5.438-2.023
		c-2.83,0-5.106,1.138-6.83,3.415c-1.722,2.277-2.581,5.5-2.581,9.671c0,4.209,0.854,7.466,2.567,9.771
		c1.712,2.306,3.993,3.458,6.844,3.458c2.104,0,3.875-0.636,5.312-1.908c1.435-1.272,2.334-3.085,2.697-5.438h11.536
		c-0.19,3.368-1.104,6.333-2.74,8.896c-1.638,2.564-3.891,4.559-6.759,5.984C312.693,302.38,309.297,303.093,305.375,303.093z"/>
	<path d="M332.198,302.232v-58.774h12.226v31.424h0.66l14.119-16.731h14.033l-16.357,19.084l17.189,24.996h-14.32l-12.024-17.764
		l-3.3,3.759v14.005L332.198,302.232L332.198,302.232z"/>
	<path d="M396.558,303.093c-4.515,0-8.394-0.961-11.637-2.884c-3.243-1.922-5.729-4.596-7.462-8.021
		c-1.731-3.424-2.597-7.366-2.597-11.824c0-4.515,0.875-8.48,2.626-11.896c1.75-3.415,4.24-6.084,7.476-8.007
		c3.234-1.923,7.079-2.884,11.537-2.884c3.845,0,7.217,0.698,10.116,2.095c2.896,1.397,5.185,3.358,6.856,5.883
		s2.6,5.491,2.771,8.896h-11.537c-0.325-2.2-1.182-3.975-2.568-5.324c-1.388-1.349-3.199-2.023-5.438-2.023
		c-2.831,0-5.108,1.138-6.83,3.415c-1.723,2.277-2.583,5.5-2.583,9.671c0,4.209,0.854,7.466,2.569,9.771
		c1.712,2.306,3.991,3.458,6.844,3.458c2.104,0,3.875-0.636,5.31-1.908c1.437-1.272,2.334-3.085,2.697-5.438h11.537
		c-0.191,3.368-1.105,6.333-2.741,8.896c-1.636,2.564-3.889,4.559-6.758,5.984C403.876,302.38,400.479,303.093,396.558,303.093z"/>
	<path d="M435.606,276.748v25.484h-12.228v-58.774h11.881v22.471h0.519c1.014-2.602,2.625-4.644,4.836-6.127
		c2.21-1.482,4.987-2.224,8.337-2.224c4.592,0,8.282,1.473,11.077,4.419c2.793,2.946,4.18,7.002,4.16,12.168v28.067h-12.227v-25.886
		c0.021-2.717-0.665-4.831-2.052-6.342c-1.388-1.511-3.324-2.267-5.813-2.267c-2.486,0-4.52,0.789-6.099,2.367
		C436.424,271.683,435.625,273.898,435.606,276.748z"/>
	<path d="M485.675,303.064c-4.209,0-7.701-1.1-10.475-3.3c-2.774-2.2-4.161-5.481-4.161-9.843c0-3.291,0.774-5.874,2.324-7.749
		s3.583-3.248,6.099-4.118c2.516-0.87,5.229-1.439,8.136-1.708c3.826-0.383,6.563-0.784,8.208-1.206
		c1.646-0.42,2.469-1.339,2.469-2.755v-0.172c0-1.817-0.568-3.224-1.707-4.218c-1.14-0.995-2.752-1.493-4.837-1.493
		c-2.198,0-3.949,0.479-5.252,1.435c-1.301,0.957-2.161,2.172-2.583,3.645l-11.307-0.918c0.842-4.018,2.932-7.204,6.271-9.557
		c3.338-2.354,7.646-3.53,12.929-3.53c3.271,0,6.332,0.517,9.184,1.549c2.851,1.033,5.151,2.646,6.901,4.836
		c1.751,2.191,2.626,5.037,2.626,8.538v29.731h-11.595v-6.113h-0.346c-1.07,2.047-2.674,3.716-4.807,5.008
		C491.62,302.419,488.928,303.064,485.675,303.064z M489.177,294.627c2.678,0,4.878-0.779,6.603-2.339
		c1.722-1.559,2.582-3.497,2.582-5.812v-4.678c-0.479,0.326-1.222,0.612-2.226,0.861c-1.005,0.249-2.076,0.464-3.214,0.646
		c-1.139,0.182-2.157,0.34-3.057,0.473c-2.146,0.307-3.87,0.909-5.183,1.808c-1.311,0.899-1.966,2.21-1.966,3.932
		c0,1.684,0.607,2.956,1.823,3.817C485.756,294.196,487.301,294.627,489.177,294.627z"/>
	<path d="M525.411,252.469c-1.799,0-3.35-0.607-4.649-1.822c-1.302-1.215-1.951-2.674-1.951-4.376c0-1.702,0.649-3.157,1.951-4.362
		c1.302-1.206,2.853-1.808,4.649-1.808c1.816,0,3.376,0.603,4.678,1.808c1.301,1.205,1.951,2.66,1.951,4.362
		c0,1.702-0.65,3.162-1.951,4.376C528.787,251.862,527.229,252.469,525.411,252.469z M519.271,302.232v-44.081h12.227v44.081
		H519.271z"/>
	<path d="M552.75,276.748v25.484h-12.226v-44.081h11.649v7.777h0.519c0.994-2.563,2.635-4.596,4.922-6.099
		c2.286-1.501,5.063-2.252,8.337-2.252c4.592,0,8.274,1.478,11.049,4.434c2.772,2.956,4.161,7.007,4.161,12.154v28.067h-12.228
		v-25.886c0.021-2.698-0.67-4.807-2.064-6.328c-1.396-1.521-3.319-2.281-5.771-2.281c-2.468,0-4.472,0.789-6.012,2.367
		C553.548,271.683,552.769,273.898,552.75,276.748z"/>
</g>
<g display="none">
	<g id="Groupe_29" transform="translate(2060.416 4799.311)" display="inline">
		<path id="Tracé_58" fill="#FFFFFF" d="M-1249.202-4756.545c3.163,5.179,8.901,8.215,14.959,7.919
			c6.715,0,11.83-2.882,11.83-7.276c0-4.079-3.038-6.229-10.79-8.158l-7.277-1.917c-10.637-2.72-15.921-8.16-15.921-16.232
			c0-10.229,8.798-17.682,21.831-17.682c10.162,0,18.794,4.642,22.543,11.993l-9.193,4.962c-2.938-4.571-8.092-7.225-13.518-6.957
			c-6,0-10.476,2.966-10.476,7.198c0,3.856,3.03,5.933,10.794,7.837l7.275,1.919c10.639,2.723,15.918,8.235,15.918,16.555
			c0,10.307-9.517,17.751-23.193,17.751c-11.199,0-20.153-5.046-24.07-12.792L-1249.202-4756.545z"/>
		<path id="Tracé_59" fill="#FFFFFF" d="M-1174.384-4741.261c-3.229,1.79-6.865,2.7-10.554,2.636
			c-10.642,0-16.229-6.072-16.229-17.914v-16.711h-9.194v-9.522h9.194v-11.429h10.869v11.429h14.313v9.522h-14.313v16.636
			c0,5.435,2.315,8.302,6.793,8.302c2.347,0.023,4.661-0.556,6.724-1.671L-1174.384-4741.261z"/>
		<path id="Tracé_60" fill="#FFFFFF" d="M-1126.813-4782.771v43.028h-10.959v-6.077c-3.049,4.728-8.385,7.468-13.998,7.195
			c-11.994,0-20.945-9.918-20.945-22.63c-0.153-12.546,9.029-22.875,20.945-22.625c5.604-0.303,10.94,2.412,13.998,7.119v-6.003
			L-1126.813-4782.771z M-1150.007-4774.374c-3.363-0.084-6.599,1.286-8.876,3.762c-2.28,2.572-3.482,5.921-3.36,9.356
			c-0.47,6.758,4.632,12.619,11.393,13.088c0.278,0.018,0.563,0.029,0.846,0.029c7.245-0.51,12.705-6.796,12.194-14.038
			c-0.459-6.538-5.659-11.739-12.194-12.199L-1150.007-4774.374L-1150.007-4774.374z"/>
		<path id="Tracé_61" fill="#FFFFFF" d="M-1098.539-4783.881c7.679-0.233,14.938,3.511,19.194,9.904l-8.876,5.043
			c-3.938-5.658-11.715-7.053-17.372-3.116c-3.515,2.446-5.53,6.521-5.339,10.799c-0.135,3.424,1.104,6.761,3.439,9.27
			c4.976,4.931,13.005,4.899,17.938-0.075c0.493-0.495,0.939-1.031,1.345-1.599l8.876,5.115
			c-6.884,10.597-21.052,13.606-31.647,6.724c-10.595-6.883-13.604-21.051-6.722-31.646c4.219-6.492,11.437-10.411,19.179-10.414
			L-1098.539-4783.881z"/>
		<path id="Tracé_62" fill="#FFFFFF" d="M-1046.026-4739.75l-17.835-19.348v19.348h-10.881v-60.063h10.881v36.15l16.881-19.112
			h12.866l-19.28,21.441l20.314,21.584H-1046.026z"/>
		<path id="Tracé_63" fill="#FFFFFF" d="M-1025.175-4801.486c3.633-0.12,6.672,2.728,6.793,6.359c0,0.04,0.003,0.082,0.003,0.123
			c-0.177,3.754-3.36,6.655-7.114,6.48c-3.508-0.164-6.317-2.972-6.479-6.48c0.021-3.604,2.961-6.509,6.563-6.487
			C-1025.331-4801.492-1025.253-4801.489-1025.175-4801.486z M-1019.737-4739.75h-10.881v-43.01h10.881V-4739.75z"/>
		<path id="Tracé_64" fill="#FFFFFF" d="M-969.622-4739.744h-10.959v-23.505c0-7.363-3.352-11.125-9.673-11.125
			c-6.317,0-10.955,4.883-10.955,12.162v22.477h-10.881v-43.012h10.881v6.158c2.842-4.704,8.021-7.488,13.514-7.268
			c11.189,0,18.07,7.268,18.07,19.826L-969.622-4739.744z"/>
		<path id="Tracé_65" fill="#FFFFFF" d="M-955.648-4756.545c3.157,5.179,8.896,8.215,14.95,7.919
			c6.726,0,11.841-2.882,11.841-7.276c0-4.079-3.043-6.229-10.791-8.158l-7.289-1.917c-10.629-2.72-15.907-8.16-15.907-16.232
			c0-10.229,8.8-17.682,21.83-17.682c10.154,0,18.795,4.642,22.543,11.993l-9.194,4.962c-2.938-4.57-8.091-7.222-13.514-6.957
			c-5.999,0-10.477,2.966-10.477,7.198c0,3.856,3.038,5.933,10.793,7.837l7.277,1.919c10.637,2.723,15.909,8.235,15.909,16.555
			c0,10.307-9.516,17.751-23.188,17.751c-11.197,0-20.151-5.046-24.077-12.792L-955.648-4756.545z"/>
		<path id="Tracé_66" fill="#FFFFFF" d="M-868.35-4782.771v43.028h-10.956v-6.077c-3.048,4.728-8.384,7.471-14,7.195
			c-11.993,0-20.95-9.918-20.95-22.63c-0.153-12.546,9.041-22.875,20.95-22.625c5.602-0.304,10.941,2.41,14,7.119v-6.003
			L-868.35-4782.771z M-891.545-4774.374c-3.363-0.08-6.596,1.291-8.876,3.762c-2.273,2.572-3.476,5.921-3.36,9.356
			c-0.469,6.758,4.633,12.619,11.393,13.088c0.279,0.018,0.563,0.029,0.846,0.029c7.245-0.51,12.705-6.796,12.195-14.038
			c-0.457-6.538-5.66-11.739-12.195-12.199L-891.545-4774.374L-891.545-4774.374z"/>
		<path id="Tracé_67" fill="#FFFFFF" d="M-834.227-4741.261c-3.226,1.79-6.864,2.7-10.551,2.636
			c-10.641,0-16.229-6.072-16.229-17.914v-37.673h10.872v11.43h14.311v9.521h-14.311v16.635c0,5.435,2.315,8.306,6.793,8.306
			c2.35,0.02,4.661-0.557,6.727-1.672L-834.227-4741.261z"/>
	</g>
	<path id="Tracé_68" display="inline" fill="#FFFFFF" d="M758.581,5.765c-9.417-9.395-24.663-9.395-34.081,0L705.112,25.15
		c-1.86,1.857-1.86,4.868-0.003,6.727c1.854,1.857,4.869,1.857,6.727,0.003l0,0l0,0l19.379-19.384
		c5.704-5.701,14.948-5.699,20.648,0.003c5.701,5.703,5.701,14.948-0.003,20.65l-12.401,12.433l6.715,6.732l12.401-12.462
		c9.433-9.42,9.473-24.673,0.053-34.105C758.622,5.742,758.619,5.737,758.581,5.765z"/>
	<path id="Tracé_69" display="inline" fill="#FFFFFF" d="M708.473,62.511c-18.757,0.012-33.969-15.188-33.977-33.943
		c-0.006-9.023,3.58-17.678,9.968-24.052l-6.727-6.722c-16.978,16.979-16.978,44.507,0.003,61.485
		c16.979,16.975,44.506,16.975,61.482-0.006l-6.724-6.721C726.143,58.947,717.49,62.534,708.473,62.511z"/>
	<path id="Tracé_70" display="inline" fill="#FFFFFF" d="M723.681-7.327l-25.51,25.528c-5.7,5.688-5.712,14.921-0.021,20.622
		c0.006,0.009,0.014,0.015,0.021,0.023c5.701,5.689,14.936,5.689,20.638,0l19.39-19.386c1.854-1.856,4.862-1.856,6.721-0.001
		c1.86,1.856,1.86,4.866,0.003,6.723h-0.018l-19.368,19.37c-9.342,9.484-24.605,9.597-34.087,0.255
		c-9.483-9.345-9.598-24.605-0.255-34.09c0.085-0.085,0.171-0.171,0.255-0.255l16.909-16.909l0,0l8.604-8.602L723.681-7.327z"/>
</g>
<text transform="matrix(0.7075 0.7067 -0.7067 0.7075 670.1025 315.9941)" display="none" enable-background="new    " font-family="'Gobold'" font-size="88.6421">B</text>
<text transform="matrix(-0.7075 -0.7067 0.7067 -0.7075 804.8896 277.9043)" display="none" enable-background="new    " font-family="'Gobold'" font-size="88.6421">C</text>
<g>
	<path d="M63.429,261.733c2.975,2.05,5.736,3.954,8.568,5.908c-1.418,2.655-2.316,5.375-2.106,8.322
		c0.402,5.671,3.575,9.501,8.629,11.517c4.702,1.873,9.481,1.211,13.124-2.419c5.411-5.393,10.456-11.154,15.623-16.791
		c1.554-1.691,3.11-3.398,4.456-5.251c3.879-5.338,2.962-13.107-1.954-17.459c-4.988-4.417-12.639-4.411-17.566,0.031
		c-0.946,0.851-1.837,1.764-2.803,2.698c-2.49-2.405-4.938-4.767-7.432-7.172c6.191-7.626,14.371-11.106,24.329-8.719
		c9.688,2.321,15.816,8.731,17.872,18.5c1.551,7.365-0.268,14.208-5.232,19.905c-6.356,7.296-12.713,14.627-19.541,21.473
		c-6.642,6.66-15.021,8.346-23.854,5.291c-8.849-3.06-14.224-9.484-15.831-18.882C58.667,272.58,60.135,267.083,63.429,261.733z"/>
	<path d="M61.705,294.948c2.438,2.433,4.817,4.809,7.287,7.271c-3.815,4.446-8.592,7.929-14.852,8.975
		c-11.448,1.914-22.409-4.269-26.356-15.115c-2.933-8.051-2.037-15.91,3.449-22.535c6.438-7.776,13.113-15.428,20.321-22.483
		c12.749-12.475,33.914-6.615,39.014,10.461c2.019,6.766,0.719,15.095-3.2,19.973c-2.788-1.915-5.585-3.839-8.454-5.811
		c1.46-2.654,2.355-5.379,2.127-8.329c-0.437-5.649-3.57-9.436-8.655-11.489c-4.71-1.9-9.137-0.914-13.047,2.281
		c-0.906,0.739-1.73,1.588-2.523,2.455c-5.41,5.925-10.82,11.851-16.192,17.808c-4.99,5.533-5.187,12.778-0.547,18.201
		c4.503,5.266,12.827,5.967,18.188,1.505C59.364,297.198,60.38,296.174,61.705,294.948z"/>
</g>
</svg>
