<?xml version="1.0" encoding="utf-8"?>
<!-- Generator: Adobe Illustrator 16.0.0, SVG Export Plug-In . SVG Version: 6.00 Build 0)  -->
<!DOCTYPE svg PUBLIC "-//W3C//DTD SVG 1.1//EN" "http://www.w3.org/Graphics/SVG/1.1/DTD/svg11.dtd">
<svg version="1.1" id="Layer_1" xmlns="http://www.w3.org/2000/svg" xmlns:xlink="http://www.w3.org/1999/xlink" x="0px" y="0px"
	 width="108px" height="108px" viewBox="234.5 1026.5 108 108" enable-background="new 234.5 1026.5 108 108" xml:space="preserve">
<g display="none">
	<g id="Groupe_29" transform="translate(2060.416 4799.311)" display="inline">
		<path id="Tracé_58" fill="#FFFFFF" d="M-1249.202-4756.545c3.163,5.179,8.901,8.215,14.959,7.919
			c6.715,0,11.83-2.882,11.83-7.276c0-4.079-3.038-6.229-10.79-8.158l-7.277-1.917c-10.637-2.72-15.921-8.16-15.921-16.232
			c0-10.229,8.798-17.682,21.831-17.682c10.162,0,18.794,4.642,22.543,11.993l-9.192,4.962c-2.938-4.571-8.093-7.225-13.519-6.957
			c-6,0-10.476,2.966-10.476,7.198c0,3.856,3.03,5.933,10.794,7.837l7.275,1.919c10.639,2.723,15.918,8.235,15.918,16.555
			c0,10.307-9.518,17.751-23.193,17.751c-11.199,0-20.153-5.046-24.07-12.792L-1249.202-4756.545z"/>
		<path id="Tracé_59" fill="#FFFFFF" d="M-1174.384-4741.261c-3.229,1.79-6.865,2.7-10.554,2.636
			c-10.643,0-16.229-6.072-16.229-17.914v-16.711h-9.194v-9.522h9.194v-11.429h10.869v11.429h14.313v9.522h-14.313v16.636
			c0,5.435,2.314,8.302,6.793,8.302c2.347,0.023,4.661-0.556,6.724-1.671L-1174.384-4741.261z"/>
		<path id="Tracé_60" fill="#FFFFFF" d="M-1126.813-4782.771v43.028h-10.959v-6.077c-3.05,4.728-8.386,7.468-13.998,7.195
			c-11.994,0-20.945-9.918-20.945-22.63c-0.153-12.546,9.029-22.875,20.945-22.625c5.604-0.303,10.939,2.412,13.998,7.119v-6.003
			L-1126.813-4782.771z M-1150.007-4774.374c-3.363-0.084-6.599,1.286-8.876,3.762c-2.28,2.572-3.482,5.921-3.36,9.356
			c-0.47,6.758,4.632,12.619,11.394,13.088c0.277,0.018,0.563,0.029,0.846,0.029c7.245-0.51,12.705-6.796,12.193-14.038
			c-0.459-6.538-5.658-11.739-12.193-12.199L-1150.007-4774.374L-1150.007-4774.374z"/>
		<path id="Tracé_61" fill="#FFFFFF" d="M-1098.539-4783.881c7.679-0.233,14.938,3.511,19.194,9.904l-8.876,5.043
			c-3.938-5.658-11.715-7.053-17.372-3.116c-3.515,2.446-5.53,6.521-5.339,10.799c-0.135,3.424,1.104,6.761,3.438,9.27
			c4.977,4.931,13.005,4.899,17.938-0.075c0.493-0.495,0.938-1.031,1.345-1.599l8.876,5.115
			c-6.884,10.597-21.052,13.606-31.646,6.724c-10.596-6.883-13.604-21.051-6.723-31.646c4.219-6.492,11.438-10.411,19.179-10.414
			L-1098.539-4783.881z"/>
		<path id="Tracé_62" fill="#FFFFFF" d="M-1046.026-4739.75l-17.835-19.348v19.348h-10.881v-60.063h10.881v36.15l16.881-19.112
			h12.866l-19.28,21.441l20.314,21.584H-1046.026z"/>
		<path id="Tracé_63" fill="#FFFFFF" d="M-1025.175-4801.486c3.633-0.12,6.672,2.728,6.793,6.359c0,0.04,0.003,0.082,0.003,0.123
			c-0.177,3.754-3.36,6.655-7.114,6.48c-3.508-0.164-6.317-2.972-6.479-6.48c0.021-3.604,2.961-6.509,6.563-6.487
			C-1025.331-4801.492-1025.253-4801.489-1025.175-4801.486z M-1019.737-4739.75h-10.881v-43.01h10.881V-4739.75z"/>
		<path id="Tracé_64" fill="#FFFFFF" d="M-969.622-4739.744h-10.959v-23.505c0-7.363-3.352-11.125-9.673-11.125
			c-6.317,0-10.955,4.883-10.955,12.162v22.477h-10.881v-43.012h10.881v6.158c2.842-4.704,8.021-7.488,13.514-7.268
			c11.189,0,18.07,7.268,18.07,19.826L-969.622-4739.744z"/>
		<path id="Tracé_65" fill="#FFFFFF" d="M-955.648-4756.545c3.157,5.179,8.896,8.215,14.95,7.919
			c6.727,0,11.841-2.882,11.841-7.276c0-4.079-3.043-6.229-10.791-8.158l-7.289-1.917c-10.629-2.72-15.906-8.16-15.906-16.232
			c0-10.229,8.8-17.682,21.83-17.682c10.153,0,18.795,4.642,22.543,11.993l-9.194,4.962c-2.938-4.57-8.091-7.222-13.514-6.957
			c-5.999,0-10.478,2.966-10.478,7.198c0,3.856,3.038,5.933,10.793,7.837l7.277,1.919c10.637,2.723,15.909,8.235,15.909,16.555
			c0,10.307-9.517,17.751-23.188,17.751c-11.196,0-20.15-5.046-24.076-12.792L-955.648-4756.545z"/>
		<path id="Tracé_66" fill="#FFFFFF" d="M-868.35-4782.771v43.028h-10.956v-6.077c-3.048,4.728-8.384,7.471-14,7.195
			c-11.993,0-20.95-9.918-20.95-22.63c-0.153-12.546,9.041-22.875,20.95-22.625c5.602-0.304,10.94,2.41,14,7.119v-6.003
			L-868.35-4782.771z M-891.545-4774.374c-3.363-0.08-6.596,1.291-8.876,3.762c-2.273,2.572-3.476,5.921-3.36,9.356
			c-0.469,6.758,4.633,12.619,11.394,13.088c0.278,0.018,0.563,0.029,0.846,0.029c7.245-0.51,12.705-6.796,12.195-14.038
			c-0.457-6.538-5.66-11.739-12.195-12.199L-891.545-4774.374L-891.545-4774.374z"/>
		<path id="Tracé_67" fill="#FFFFFF" d="M-834.227-4741.261c-3.227,1.79-6.864,2.7-10.552,2.636
			c-10.641,0-16.229-6.072-16.229-17.914v-37.673h10.872v11.43h14.311v9.521h-14.311v16.635c0,5.435,2.314,8.306,6.793,8.306
			c2.35,0.02,4.661-0.557,6.727-1.672L-834.227-4741.261z"/>
	</g>
	<path id="Tracé_68" display="inline" fill="#FFFFFF" d="M758.581,5.765c-9.417-9.395-24.663-9.395-34.081,0L705.112,25.15
		c-1.86,1.857-1.86,4.868-0.003,6.727c1.854,1.857,4.869,1.857,6.727,0.003l0,0l0,0l19.379-19.384
		c5.704-5.701,14.948-5.699,20.648,0.003c5.701,5.703,5.701,14.948-0.003,20.65l-12.401,12.433l6.715,6.732l12.401-12.462
		c9.433-9.42,9.473-24.673,0.053-34.105C758.622,5.742,758.619,5.737,758.581,5.765z"/>
	<path id="Tracé_69" display="inline" fill="#FFFFFF" d="M708.473,62.511c-18.757,0.012-33.969-15.188-33.977-33.943
		c-0.006-9.023,3.58-17.678,9.968-24.052l-6.727-6.722c-16.979,16.979-16.979,44.507,0.003,61.485
		c16.979,16.975,44.506,16.975,61.481-0.006l-6.724-6.721C726.143,58.947,717.49,62.534,708.473,62.511z"/>
	<path id="Tracé_70" display="inline" fill="#FFFFFF" d="M723.681-7.327l-25.51,25.528c-5.7,5.688-5.712,14.921-0.021,20.622
		c0.006,0.009,0.014,0.015,0.021,0.023c5.701,5.689,14.937,5.689,20.638,0l19.391-19.386c1.854-1.856,4.861-1.856,6.721-0.001
		c1.86,1.856,1.86,4.866,0.003,6.723h-0.018l-19.368,19.37c-9.342,9.484-24.605,9.597-34.087,0.255
		c-9.483-9.345-9.599-24.605-0.255-34.09c0.085-0.085,0.171-0.171,0.255-0.255l16.909-16.909l0,0l8.604-8.602L723.681-7.327z"/>
</g>
<text transform="matrix(0.7075 0.7067 -0.7067 0.7075 670.1025 315.9941)" display="none" enable-background="new    " font-family="'Gobold'" font-size="88.6421">B</text>
<text transform="matrix(-0.7075 -0.7067 0.7067 -0.7075 804.8896 277.9043)" display="none" enable-background="new    " font-family="'Gobold'" font-size="88.6421">C</text>
<g>
	<path fill="#F7941E" d="M275.823,1069.779c3.187,2.196,6.146,4.236,9.181,6.331c-1.519,2.844-2.482,5.76-2.257,8.918
		c0.431,6.076,3.832,10.181,9.247,12.342c5.039,2.006,10.16,1.296,14.064-2.593c5.797-5.78,11.205-11.953,16.741-17.994
		c1.666-1.812,3.333-3.642,4.775-5.627c4.156-5.72,3.174-14.045-2.094-18.709c-5.347-4.733-13.543-4.728-18.824,0.033
		c-1.013,0.912-1.969,1.889-3.005,2.891c-2.667-2.577-5.291-5.107-7.963-7.685c6.634-8.173,15.401-11.901,26.072-9.343
		c10.381,2.487,16.947,9.355,19.151,19.824c1.662,7.893-0.289,15.225-5.607,21.331c-6.811,7.816-13.623,15.674-20.94,23.01
		c-7.117,7.137-16.096,8.943-25.561,5.669c-9.482-3.279-15.242-10.162-16.964-20.234
		C270.72,1081.401,272.292,1075.511,275.823,1069.779z"/>
	<path fill="#F7941E" d="M273.975,1105.37c2.613,2.607,5.162,5.154,7.81,7.792c-4.088,4.765-9.207,8.497-15.915,9.618
		c-12.269,2.052-24.013-4.575-28.244-16.197c-3.143-8.628-2.183-17.049,3.696-24.148c6.9-8.333,14.054-16.533,21.777-24.094
		c13.663-13.368,36.342-7.089,41.807,11.211c2.164,7.25,0.771,16.175-3.43,21.403c-2.986-2.053-5.983-4.115-9.058-6.229
		c1.563-2.844,2.523-5.764,2.28-8.924c-0.468-6.055-3.827-10.111-9.275-12.313c-5.047-2.034-9.791-0.979-13.981,2.446
		c-0.971,0.791-1.855,1.701-2.704,2.63c-5.799,6.35-11.596,12.699-17.354,19.083c-5.346,5.93-5.557,13.693-0.585,19.505
		c4.826,5.643,13.746,6.395,19.49,1.612C271.468,1107.782,272.556,1106.687,273.975,1105.37z"/>
</g>
</svg>
