<?xml version="1.0" encoding="utf-8"?>
<!-- Generator: Adobe Illustrator 16.0.0, SVG Export Plug-In . SVG Version: 6.00 Build 0)  -->
<!DOCTYPE svg PUBLIC "-//W3C//DTD SVG 1.1//EN" "http://www.w3.org/Graphics/SVG/1.1/DTD/svg11.dtd">
<svg version="1.1" id="Layer_1" xmlns="http://www.w3.org/2000/svg" xmlns:xlink="http://www.w3.org/1999/xlink" x="0px" y="0px"
	 width="108px" height="108px" viewBox="234.5 1026.5 108 108" enable-background="new 234.5 1026.5 108 108" xml:space="preserve">
<g>
	<path fill="#F7941E" d="M275.823,1069.779c3.187,2.196,6.146,4.236,9.181,6.331c-1.519,2.844-2.482,5.76-2.257,8.918
		c0.431,6.076,3.832,10.181,9.247,12.342c5.039,2.006,10.16,1.296,14.064-2.593c5.797-5.78,11.205-11.953,16.741-17.994
		c1.666-1.812,3.333-3.642,4.775-5.627c4.156-5.72,3.174-14.045-2.094-18.709c-5.347-4.733-13.543-4.728-18.824,0.033
		c-1.013,0.912-1.969,1.889-3.005,2.891c-2.667-2.577-5.291-5.107-7.963-7.685c6.634-8.173,15.401-11.901,26.072-9.343
		c10.381,2.487,16.947,9.355,19.151,19.824c1.662,7.893-0.289,15.225-5.607,21.331c-6.811,7.816-13.623,15.674-20.94,23.01
		c-7.117,7.137-16.096,8.943-25.561,5.669c-9.482-3.279-15.242-10.162-16.964-20.234
		C270.72,1081.401,272.292,1075.511,275.823,1069.779z"/>
	<path fill="#F7941E" d="M273.975,1105.37c2.613,2.607,5.162,5.154,7.81,7.792c-4.088,4.765-9.207,8.497-15.915,9.618
		c-12.269,2.052-24.013-4.575-28.244-16.197c-3.143-8.628-2.183-17.049,3.696-24.148c6.9-8.333,14.054-16.533,21.777-24.094
		c13.663-13.368,36.342-7.089,41.807,11.211c2.164,7.25,0.771,16.175-3.43,21.403c-2.986-2.053-5.983-4.115-9.058-6.229
		c1.563-2.844,2.523-5.764,2.28-8.924c-0.468-6.055-3.827-10.111-9.275-12.313c-5.047-2.034-9.791-0.979-13.981,2.446
		c-0.971,0.791-1.855,1.701-2.704,2.63c-5.799,6.35-11.596,12.699-17.354,19.083c-5.346,5.93-5.557,13.693-0.585,19.505
		c4.826,5.643,13.746,6.395,19.49,1.612C271.468,1107.782,272.556,1106.687,273.975,1105.37z"/>
</g>
</svg>
